# Blender 3.4.0
# www.blender.org
o Cube
v -1.000000 -1.000000 1.000000
v -1.000000 1.000000 1.000000
v -1.000000 -1.000000 -1.000000
v -1.000000 1.000000 -1.000000
v 1.000000 -1.000000 1.000000
v 1.000000 1.000000 1.000000
v 1.000000 -1.000000 -1.000000
v 1.000000 1.000000 -1.000000
v -1.000000 -0.800000 0.800000
v -1.000000 0.800000 -0.800000
v -1.000000 0.800000 0.800000
v -1.000000 -0.800000 -0.800000
v 1.000000 -0.800000 -0.800000
v 1.000000 0.800000 0.800000
v 1.000000 0.800000 -0.800000
v 1.000000 -0.800000 0.800000
v -0.800000 -0.800000 -1.000000
v 0.800000 0.800000 -1.000000
v -0.800000 0.800000 -1.000000
v 0.800000 -0.800000 -1.000000
v 0.800000 -0.800000 1.000000
v -0.800000 0.800000 1.000000
v 0.800000 0.800000 1.000000
v -0.800000 -0.800000 1.000000
v -0.800000 -0.800000 -0.800000
v 0.800000 -0.800000 -0.800000
v -0.400000 -0.800000 -0.800000
v 0.400000 0.800000 -0.800000
v -0.800000 0.800000 -0.800000
v 0.800000 0.800000 -0.800000
v -0.800000 -0.800000 0.800000
v 0.800000 -0.800000 0.800000
v 0.400000 -0.800000 0.800000
v -0.400000 0.800000 0.800000
v -0.800000 0.800000 0.800000
v 0.800000 0.800000 0.800000
v 0.800000 -1.000000 0.800000
v -0.800000 -1.000000 -0.800000
v 0.800000 -1.000000 -0.800000
v -0.800000 -1.000000 0.800000
v -0.800000 1.000000 0.800000
v 0.800000 1.000000 -0.800000
v -0.800000 1.000000 -0.800000
v 0.800000 1.000000 0.800000
vn -1.0000 -0.0000 -0.0000
vn -0.0000 -0.0000 -1.0000
vn 1.0000 -0.0000 -0.0000
vn -0.0000 -0.0000 1.0000
vn -0.0000 -1.0000 -0.0000
vn -0.0000 1.0000 -0.0000
vt 0.375000 0.000000
vt 0.375000 1.000000
vt 0.125000 0.750000
vt 0.625000 0.000000
vt 0.625000 1.000000
vt 0.875000 0.750000
vt 0.375000 0.250000
vt 0.125000 0.500000
vt 0.625000 0.250000
vt 0.875000 0.500000
vt 0.375000 0.750000
vt 0.625000 0.750000
vt 0.375000 0.500000
vt 0.625000 0.500000
vt 0.400000 0.025000
vt 0.375000 0.953125
vt 0.171875 0.750000
vt 0.600000 0.225000
vt 0.625000 0.296875
vt 0.828125 0.500000
vt 0.600000 0.025000
vt 0.625000 0.953125
vt 0.828125 0.750000
vt 0.400000 0.225000
vt 0.375000 0.296875
vt 0.171875 0.500000
vt 0.400000 0.525000
vt 0.375000 0.453125
vt 0.328125 0.500000
vt 0.600000 0.725000
vt 0.625000 0.796875
vt 0.671875 0.750000
vt 0.600000 0.525000
vt 0.625000 0.453125
vt 0.671875 0.500000
vt 0.400000 0.725000
vt 0.375000 0.796875
vt 0.328125 0.750000
vt 0.400000 0.275000
vt 0.375000 0.203125
vt 0.125000 0.546875
vt 0.600000 0.475000
vt 0.625000 0.546875
vt 0.600000 0.275000
vt 0.625000 0.203125
vt 0.875000 0.546875
vt 0.400000 0.475000
vt 0.375000 0.546875
vt 0.400000 0.775000
vt 0.375000 0.703125
vt 0.600000 0.975000
vt 0.625000 0.046875
vt 0.875000 0.703125
vt 0.600000 0.775000
vt 0.625000 0.703125
vt 0.400000 0.975000
vt 0.375000 0.046875
vt 0.125000 0.703125
vt 0.375000 0.312500
vt 0.187500 0.500000
vt 0.375000 0.187500
vt 0.125000 0.562500
vt 0.437500 0.250000
vt 0.375000 0.437500
vt 0.312500 0.500000
vt 0.375000 0.562500
vt 0.437500 0.500000
vt 0.187500 0.562500
vt 0.437500 0.312500
vt 0.687500 0.562500
vt 0.562500 0.437500
vt 0.625000 0.312500
vt 0.812500 0.500000
vt 0.625000 0.187500
vt 0.875000 0.562500
vt 0.562500 0.250000
vt 0.625000 0.437500
vt 0.687500 0.500000
vt 0.625000 0.562500
vt 0.562500 0.500000
vt 0.375000 0.937500
vt 0.187500 0.750000
vt 0.375000 0.062500
vt 0.125000 0.687500
vt 0.437500 0.000000
vt 0.437500 1.000000
vt 0.375000 0.812500
vt 0.312500 0.750000
vt 0.375000 0.687500
vt 0.437500 0.750000
vt 0.312500 0.687500
vt 0.437500 0.812500
vt 0.812500 0.687500
vt 0.562500 0.937500
vt 0.625000 0.937500
vt 0.812500 0.750000
vt 0.625000 0.062500
vt 0.875000 0.687500
vt 0.562500 0.000000
vt 0.562500 1.000000
vt 0.625000 0.812500
vt 0.687500 0.750000
vt 0.625000 0.687500
vt 0.562500 0.750000
vt 0.350000 0.725000
vt 0.421875 0.750000
vt 0.150000 0.525000
vt 0.421875 0.250000
vt 0.350000 0.525000
vt 0.421875 0.500000
vt 0.150000 0.725000
vt 0.421875 0.000000
vt 0.421875 1.000000
vt 0.850000 0.725000
vt 0.578125 0.000000
vt 0.578125 1.000000
vt 0.650000 0.525000
vt 0.578125 0.500000
vt 0.850000 0.525000
vt 0.578125 0.250000
vt 0.650000 0.725000
vt 0.578125 0.750000
s 0
f 10/18/1 11/21/1 2/4/1 4/9/1 3/7/1 12/24/1
f 9/15/1 12/24/1 3/7/1 1/1/1 2/4/1 11/21/1
f 18/42/2 19/44/2 4/9/2 8/14/2 7/13/2 20/47/2
f 17/39/2 20/47/2 7/13/2 3/7/2 4/9/2 19/44/2
f 15/33/3 13/27/3 7/13/3 8/14/3 6/12/3 5/11/3 16/36/3 14/30/3
f 16/36/3 5/11/3 7/13/3 13/27/3
f 21/49/4 5/11/4 6/12/4 2/5/4 1/2/4 24/56/4 22/51/4 23/54/4
f 24/56/4 1/2/4 5/11/4 21/49/4
f 40/111/5 1/3/5 3/8/5 7/13/5 5/11/5 37/105/5 39/109/5 38/107/5
f 5/11/5 1/3/5 40/111/5 37/105/5
f 4/10/6 2/6/6 6/12/6 44/121/6 41/114/6 43/119/6
f 6/12/6 8/14/6 4/10/6 43/119/6 42/117/6 44/121/6
f 26/64/4 13/28/4 15/34/4 30/77/4
f 10/19/4 12/25/4 25/59/4 29/72/4
f 31/81/2 9/16/2 11/22/2 35/95/2
f 14/31/2 16/37/2 32/87/2 36/101/2
f 32/88/6 16/38/6 13/29/6 26/65/6
f 12/26/6 9/17/6 31/82/6 25/60/6
f 30/78/5 15/35/5 14/32/5 36/102/5
f 11/23/5 10/20/5 29/73/5 35/96/5
f 35/97/3 22/52/3 24/57/3 31/83/3
f 25/61/3 17/40/3 19/45/3 29/74/3
f 30/79/1 18/43/1 20/48/1 26/66/1
f 32/89/1 21/50/1 23/55/1 36/103/1
f 27/68/6 26/66/6 20/48/6 17/41/6 25/62/6
f 31/84/6 24/58/6 21/50/6 32/89/6 33/91/6
f 19/46/5 18/43/5 30/79/5 28/70/5 29/75/5
f 22/53/5 35/98/5 34/93/5 36/103/5 23/55/5
f 38/108/3 25/63/3 31/85/3 40/112/3
f 41/115/3 35/99/3 29/76/3 43/120/3
f 43/120/4 29/76/4 28/71/4 30/80/4 42/118/4
f 39/110/4 26/67/4 27/69/4 25/63/4 38/108/4
f 26/67/1 39/110/1 37/106/1 32/90/1
f 36/104/1 44/122/1 42/118/1 30/80/1
f 36/104/2 34/94/2 35/100/2 41/116/2 44/122/2
f 31/86/2 33/92/2 32/90/2 37/106/2 40/113/2
