# Blender 3.4.0
# www.blender.org
mtllib BowPrototype.mtl
o Bow
v 0.031250 0.000000 0.000000
v 0.031250 1.000000 1.000000
v 0.031250 0.000000 1.000000
v -0.031250 0.000000 0.000000
v -0.031250 1.000000 1.000000
v -0.031250 0.000000 1.000000
v -0.062500 1.000000 0.306155
v 0.062500 1.000000 0.306155
v 0.062500 0.674076 0.000000
v -0.062500 0.674076 0.000000
vn -0.0000 -0.0000 1.0000
vn -1.0000 -0.0000 -0.0000
vn -0.0000 -1.0000 -0.0000
vn 1.0000 -0.0000 -0.0000
vn -0.0000 -0.0000 -1.0000
vn -0.0000 1.0000 -0.0000
vn -0.0000 0.6847 -0.7289
vn -0.9979 -0.0452 0.0459
vn 0.9979 -0.0452 0.0459
vt 0.375000 0.500000
vt 0.625000 0.750000
vt 0.375000 0.750000
vt 0.125000 0.500000
vt 0.375000 0.250000
vt 0.625000 1.000000
vt 0.875000 0.750000
vt 0.625000 0.000000
vt 0.375000 1.000000
vt 0.375000 0.000000
vt 0.125000 0.750000
vt 0.875000 0.576539
vt 0.000000 0.000000
vt 0.625000 0.173461
vt 0.000000 0.000000
vt 0.625000 0.576539
vt 0.000000 0.000000
vt 0.543519 0.500000
vt 0.000000 0.000000
vt 0.543519 0.250000
s 0
usemtl Material.003
f 3/3/1 2/2/1 5/6/1 6/9/1
f 6/10/2 5/8/2 4/5/2
f 4/4/3 1/1/3 3/3/3 6/11/3
f 1/1/4 2/2/4 3/3/4
f 4/5/5 10/20/5 9/18/5 1/1/5
f 8/16/6 7/12/6 5/7/6 2/2/6
f 8/15/7 9/17/7 10/19/7
f 8/15/7 10/19/7 7/13/7
f 4/5/8 5/8/8 7/14/8 10/20/8
f 2/2/9 1/1/9 9/18/9 8/16/9
